# xmcd CD database file
#
# Track frame offsets:
#	150
#	13063
#	25676
#	37557
#	48187
#	58716
#	71122
#	83189
#	93552
#	104237
#	117420
#	128212
#	139532
#	150600
#	164179
#	177956
#	190407
#	202592
#	214493
#	228428
#	240012
#	250363
#	262837
#	275266
#	285939
#
# Disc length: 3959 seconds
#
# Revision: 0
# Processed by: cddbd v1.5.2PL0 Copyright (c) Steve Scherf et al.
# Submitted via: CDex 1.51
#
DISCID=5a0f7519
DTITLE=Various Artist - Stompin' Singers and Western Swingers #4: Saturday Night Rag
DYEAR=2005
DGENRE=Country
TTITLE0=Al Dexter - Hi-De-Ho Boogie On A Saturday Night 
TTITLE1=Benny Leaders - Clean Town Blues 
TTITLE2=Billy Briggs - Dip Snuff Stomp 
TTITLE3=Bob Wills - Bowman Hop 
TTITLE4=Hank Penny and Jay P. Morgan - That's My Weakness Now 
TTITLE5=Jim Boyd - Mule Boogie 
TTITLE6=Jesse James and All the Boys - Joaquin Special 
TTITLE7=Smokey Rogers - Catch Me Cheatin' 
TTITLE8=Tex Williams - Wild Card 
TTITLE9=Cliff Bruner and Texas Wonderers - I Was A Gambler In Texas 
TTITLE10=Al Dexter - Hot Foot Shuffle 
TTITLE11=Billy Briggs - Amarillo Rose 
TTITLE12=Bob Wills - Hubbin' It 
TTITLE13=Leon McAuliffe - Blue Guitar Stomp 
TTITLE14=Rusty McDonald - You Got The Right Number 
TTITLE15=Curley Williams - Saturday Night Rag 
TTITLE16=Tommy Duncan - Tomato Can 
TTITLE17=Bob Wills - Snatchin' And Grabbin' 
TTITLE18=Jimmy Thomason - The Spider And The Fly 
TTITLE19=Wade Ray - It's All Your Fault 
TTITLE20=Walt McCoy and Western Wonders - I'm A Lover Not A Fighter 
TTITLE21=Leon Mcauliffe - This Side Of Town 
TTITLE22=Billy Jack Wills - Roped And Tied 
TTITLE23=Hank Penny - You Can't Pull The Wool Over My Eyes 
TTITLE24=Tommy Duncan - Nancy Jane
EXTD=YEAR: 2005
EXTT0=
EXTT1=
EXTT2=
EXTT3=
EXTT4=
EXTT5=
EXTT6=
EXTT7=
EXTT8=
EXTT9=
EXTT10=
EXTT11=
EXTT12=
EXTT13=
EXTT14=
EXTT15=
EXTT16=
EXTT17=
EXTT18=
EXTT19=
EXTT20=
EXTT21=
EXTT22=
EXTT23=
EXTT24=
PLAYORDER=
